<?xml version="1.0" encoding="UTF-8"?>
<!DOCTYPE svg
PUBLIC "-//W3C//DTD SVG 1.1//EN"
       "http://www.w3.org/Graphics/SVG/1.1/DTD/svg11.dtd">
<svg version="1.1" xmlns="http://www.w3.org/2000/svg" xmlns:xlink="http://www.w3.org/1999/xlink" viewBox="0 0 3300 2200">
 <!--glyph: "novelspeaker.launcher", point size: 100.0, template writer version: "138.0.0"-->
 <style>.defaults {-sfsymbols-variable-value-mode:color;-sfsymbols-draw-reverses-motion-groups:true}

.monochrome-0 {-sfsymbols-motion-group:0}
.multicolor-0:tintColor {-sfsymbols-motion-group:0}
.hierarchical-0:primary {-sfsymbols-motion-group:0}
.monochrome-1 {opacity:0.0;-sfsymbols-clear-behind:true;-sfsymbols-motion-group:0}
.multicolor-1:tintColor {opacity:0.0;-sfsymbols-clear-behind:true;-sfsymbols-motion-group:0}
.hierarchical-1:primary {opacity:0.0;-sfsymbols-clear-behind:true;-sfsymbols-motion-group:0}
.monochrome-2 {-sfsymbols-motion-group:0}
.multicolor-2:tintColor {-sfsymbols-motion-group:0}
.hierarchical-2:primary {-sfsymbols-motion-group:0}
</style>
 <g id="Notes">
  <rect height="2200" id="artboard" style="fill:white;opacity:1" width="3300" x="0" y="0"/>
  <text id="template-version" style="stroke:none;fill:black;font-family:sans-serif;font-size:13;text-anchor:end;" transform="matrix(1 0 0 1 3036 1933)">Template v.7.0</text>
  <text id="descriptive-name" style="stroke:none;fill:black;font-family:sans-serif;font-size:13;text-anchor:end;" transform="matrix(1 0 0 1 3036 1969)">Generated from NovelSpeakerIcon-monochrome-noround.svg</text>
 </g>
 <g id="Guides">
  <g id="H-reference" style="fill:#27AAE1;stroke:none;" transform="matrix(1 0 0 1 339 696)">
   <path d="M0.993654 0L3.63775 0L29.3281-67.1323L30.0303-67.1323L30.0303-70.459L28.1226-70.459ZM11.6885-24.4799L46.9815-24.4799L46.2315-26.7285L12.4385-26.7285ZM55.1196 0L57.7637 0L30.6382-70.459L29.4326-70.459L29.4326-67.1323Z"/>
  </g>
  <line id="Baseline-S" style="fill:none;stroke:#27AAE1;opacity:1;stroke-width:0.5;" x1="263" x2="3036" y1="696" y2="696"/>
  <line id="Capline-S" style="fill:none;stroke:#27AAE1;opacity:1;stroke-width:0.5;" x1="263" x2="3036" y1="625.541" y2="625.541"/>
  <g id="H-reference" style="fill:#27AAE1;stroke:none;" transform="matrix(1 0 0 1 339 1126)">
   <path d="M0.993654 0L3.63775 0L29.3281-67.1323L30.0303-67.1323L30.0303-70.459L28.1226-70.459ZM11.6885-24.4799L46.9815-24.4799L46.2315-26.7285L12.4385-26.7285ZM55.1196 0L57.7637 0L30.6382-70.459L29.4326-70.459L29.4326-67.1323Z"/>
  </g>
  <line id="Baseline-M" style="fill:none;stroke:#27AAE1;opacity:1;stroke-width:0.5;" x1="263" x2="3036" y1="1126" y2="1126"/>
  <line id="Capline-M" style="fill:none;stroke:#27AAE1;opacity:1;stroke-width:0.5;" x1="263" x2="3036" y1="1055.54" y2="1055.54"/>
  <g id="H-reference" style="fill:#27AAE1;stroke:none;" transform="matrix(1 0 0 1 339 1556)">
   <path d="M0.993654 0L3.63775 0L29.3281-67.1323L30.0303-67.1323L30.0303-70.459L28.1226-70.459ZM11.6885-24.4799L46.9815-24.4799L46.2315-26.7285L12.4385-26.7285ZM55.1196 0L57.7637 0L30.6382-70.459L29.4326-70.459L29.4326-67.1323Z"/>
  </g>
  <line id="Baseline-L" style="fill:none;stroke:#27AAE1;opacity:1;stroke-width:0.5;" x1="263" x2="3036" y1="1556" y2="1556"/>
  <line id="Capline-L" style="fill:none;stroke:#27AAE1;opacity:1;stroke-width:0.5;" x1="263" x2="3036" y1="1485.54" y2="1485.54"/>
  <line id="left-margin-Ultralight-S" style="fill:none;stroke:#00AEEF;stroke-width:0.5;opacity:1.0;" x1="509.685" x2="509.685" y1="600.785" y2="720.121"/>
  <line id="right-margin-Ultralight-S" style="fill:none;stroke:#00AEEF;stroke-width:0.5;opacity:1.0;" x1="609.737" x2="609.737" y1="600.785" y2="720.121"/>
  <line id="left-margin-Regular-S" style="fill:none;stroke:#00AEEF;stroke-width:0.5;opacity:1.0;" x1="1399.814" x2="1399.814" y1="600.785" y2="720.121"/>
  <line id="right-margin-Regular-S" style="fill:none;stroke:#00AEEF;stroke-width:0.5;opacity:1.0;" x1="1499.866" x2="1499.866" y1="600.785" y2="720.121"/>
  <line id="left-margin-Black-S" style="fill:none;stroke:#00AEEF;stroke-width:0.5;opacity:1.0;" x1="2883.374" x2="2883.374" y1="600.785" y2="720.121"/>
  <line id="right-margin-Black-S" style="fill:none;stroke:#00AEEF;stroke-width:0.5;opacity:1.0;" x1="2983.426" x2="2983.426" y1="600.785" y2="720.121"/>
 </g>
 <g id="Symbols">
  <g id="Ultralight-S" transform="matrix(1 0 0 1 509.685 696.0)">
   <path class="monochrome-0 multicolor-0:tintColor hierarchical-0:primary" d="M64.678 -31.279C63.168 -31.279 61.945 -32.529 61.945 -34.071L61.945 -53.182C61.945 -60.259 59.285 -66.915 54.455 -71.923C49.636 -76.920 43.238 -79.671 36.439 -79.671C22.373 -79.671 10.932 -67.788 10.932 -53.182L10.932 -34.071C10.932 -32.529 9.707 -31.279 8.199 -31.279C6.689 -31.279 5.466 -32.529 5.466 -34.071L5.466 -53.182C5.466 -70.867 19.361 -85.255 36.439 -85.255C44.713 -85.255 52.495 -81.912 58.350 -75.842C64.193 -69.782 67.411 -61.734 67.411 -53.182L67.411 -34.071C67.411 -32.529 66.188 -31.279 64.678 -31.279Z"/>
   <path class="monochrome-0 multicolor-0:tintColor hierarchical-0:primary" d="M56.479 -12.047L49.434 -12.047C49.300 -12.047 49.193 -12.155 49.193 -12.288L49.193 -45.306C49.193 -45.440 49.300 -45.549 49.434 -45.549L56.479 -45.549Z"/>
   <path class="monochrome-0 multicolor-0:tintColor hierarchical-0:primary" d="M72.877 -28.798C72.877 -20.571 66.355 -13.908 58.301 -13.908L58.301 -43.688C66.355 -43.688 72.877 -37.025 72.877 -28.798Z"/>
   <path class="monochrome-0 multicolor-0:tintColor hierarchical-0:primary" d="M16.397 -45.549L23.443 -45.549C23.577 -45.549 23.685 -45.440 23.685 -45.306L23.685 -12.288C23.685 -12.155 23.577 -12.047 23.443 -12.047L16.397 -12.047Z"/>
   <path class="monochrome-0 multicolor-0:tintColor hierarchical-0:primary" d="M-0.000 -28.798C-0.000 -37.025 6.523 -43.688 14.575 -43.688L14.575 -13.908C6.523 -13.908 -0.000 -20.571 -0.000 -28.798Z"/>
   <path class="monochrome-0 multicolor-0:tintColor hierarchical-0:primary" d="M27.489 -17.936C27.489 -16.697 28.490 -15.697 29.724 -15.697L43.203 -15.654C43.039 -16.290 42.977 -16.966 43.102 -17.688C43.193 -18.209 43.377 -18.726 43.608 -19.216L27.494 -19.216C27.494 -19.053 27.489 -17.936 27.489 -17.936ZM45.296 -46.949C44.484 -46.949 40.372 -46.954 39.497 -46.959L39.518 -29.984L29.883 -21.912L45.269 -21.912C45.274 -24.231 45.296 -44.636 45.296 -46.949ZM46.793 -15.643C47.541 -15.638 48.136 -15.038 48.136 -14.289L48.136 -14.284C48.136 -13.547 47.530 -12.940 46.788 -12.940L29.713 -12.993C26.989 -13.004 24.784 -15.227 24.790 -17.940L24.863 -37.338C24.869 -39.667 26.171 -42.766 27.821 -44.404L37.214 -53.723C37.605 -54.104 38.179 -54.219 38.685 -54.009C39.191 -53.798 39.513 -53.308 39.513 -52.760C39.513 -52.760 39.508 -50.969 39.502 -49.662C41.041 -49.651 46.655 -49.645 46.655 -49.645C47.394 -49.640 48.000 -49.034 48.000 -48.292L47.974 -20.564C47.974 -19.979 47.589 -19.484 47.072 -19.300L47.078 -19.289C46.713 -19.162 45.949 -18.283 45.764 -17.223C45.655 -16.582 45.791 -16.060 46.160 -15.643L46.793 -15.643Z"/>
   <path class="monochrome-1 multicolor-1:tintColor hierarchical-1:primary" d="M102.493 -14.487C102.493 3.034 88.289 17.236 70.768 17.236C53.247 17.236 39.045 3.034 39.045 -14.487C39.045 -32.008 53.247 -46.211 70.768 -46.211C88.289 -46.211 102.493 -32.008 102.493 -14.487Z"/>
   <path class="monochrome-2 multicolor-2:tintColor hierarchical-2:primary" d="M100.052 -14.487C100.052 1.685 86.941 14.796 70.768 14.796C54.595 14.796 41.485 1.685 41.485 -14.487C41.485 -30.660 54.595 -43.771 70.768 -43.771C86.941 -43.771 100.052 -30.660 100.052 -14.487Z"/>
   <path class="monochrome-2 multicolor-2:tintColor hierarchical-2:primary" d="M95.903 -14.487C95.903 -28.369 84.650 -39.622 70.768 -39.622C56.886 -39.622 45.634 -28.369 45.634 -14.487C45.634 -0.605 56.886 10.647 70.768 10.647C84.650 10.647 95.903 -0.605 95.903 -14.487Z"/>
   <path class="monochrome-2 multicolor-2:tintColor hierarchical-2:primary" d="M61.617 -25.469L83.580 -14.487L61.617 -3.506Z"/>
  </g>
  <g id="Regular-S" transform="matrix(1 0 0 1 1399.814 696.0)">
   <path class="monochrome-0 multicolor-0:tintColor hierarchical-0:primary" d="M64.678 -31.279C63.168 -31.279 61.945 -32.529 61.945 -34.071L61.945 -53.182C61.945 -60.259 59.285 -66.915 54.455 -71.923C49.636 -76.920 43.238 -79.671 36.439 -79.671C22.373 -79.671 10.932 -67.788 10.932 -53.182L10.932 -34.071C10.932 -32.529 9.707 -31.279 8.199 -31.279C6.689 -31.279 5.466 -32.529 5.466 -34.071L5.466 -53.182C5.466 -70.867 19.361 -85.255 36.439 -85.255C44.713 -85.255 52.495 -81.912 58.350 -75.842C64.193 -69.782 67.411 -61.734 67.411 -53.182L67.411 -34.071C67.411 -32.529 66.188 -31.279 64.678 -31.279Z"/>
   <path class="monochrome-0 multicolor-0:tintColor hierarchical-0:primary" d="M56.479 -12.047L49.434 -12.047C49.300 -12.047 49.193 -12.155 49.193 -12.288L49.193 -45.306C49.193 -45.440 49.300 -45.549 49.434 -45.549L56.479 -45.549Z"/>
   <path class="monochrome-0 multicolor-0:tintColor hierarchical-0:primary" d="M72.877 -28.798C72.877 -20.571 66.355 -13.908 58.301 -13.908L58.301 -43.688C66.355 -43.688 72.877 -37.025 72.877 -28.798Z"/>
   <path class="monochrome-0 multicolor-0:tintColor hierarchical-0:primary" d="M16.397 -45.549L23.443 -45.549C23.577 -45.549 23.685 -45.440 23.685 -45.306L23.685 -12.288C23.685 -12.155 23.577 -12.047 23.443 -12.047L16.397 -12.047Z"/>
   <path class="monochrome-0 multicolor-0:tintColor hierarchical-0:primary" d="M-0.000 -28.798C-0.000 -37.025 6.523 -43.688 14.575 -43.688L14.575 -13.908C6.523 -13.908 -0.000 -20.571 -0.000 -28.798Z"/>
   <path class="monochrome-0 multicolor-0:tintColor hierarchical-0:primary" d="M27.489 -17.936C27.489 -16.697 28.490 -15.697 29.724 -15.697L43.203 -15.654C43.039 -16.290 42.977 -16.966 43.102 -17.688C43.193 -18.209 43.377 -18.726 43.608 -19.216L27.494 -19.216C27.494 -19.053 27.489 -17.936 27.489 -17.936ZM45.296 -46.949C44.484 -46.949 40.372 -46.954 39.497 -46.959L39.518 -29.984L29.883 -21.912L45.269 -21.912C45.274 -24.231 45.296 -44.636 45.296 -46.949ZM46.793 -15.643C47.541 -15.638 48.136 -15.038 48.136 -14.289L48.136 -14.284C48.136 -13.547 47.530 -12.940 46.788 -12.940L29.713 -12.993C26.989 -13.004 24.784 -15.227 24.790 -17.940L24.863 -37.338C24.869 -39.667 26.171 -42.766 27.821 -44.404L37.214 -53.723C37.605 -54.104 38.179 -54.219 38.685 -54.009C39.191 -53.798 39.513 -53.308 39.513 -52.760C39.513 -52.760 39.508 -50.969 39.502 -49.662C41.041 -49.651 46.655 -49.645 46.655 -49.645C47.394 -49.640 48.000 -49.034 48.000 -48.292L47.974 -20.564C47.974 -19.979 47.589 -19.484 47.072 -19.300L47.078 -19.289C46.713 -19.162 45.949 -18.283 45.764 -17.223C45.655 -16.582 45.791 -16.060 46.160 -15.643L46.793 -15.643Z"/>
   <path class="monochrome-1 multicolor-1:tintColor hierarchical-1:primary" d="M102.493 -14.487C102.493 3.034 88.289 17.236 70.768 17.236C53.247 17.236 39.045 3.034 39.045 -14.487C39.045 -32.008 53.247 -46.211 70.768 -46.211C88.289 -46.211 102.493 -32.008 102.493 -14.487Z"/>
   <path class="monochrome-2 multicolor-2:tintColor hierarchical-2:primary" d="M100.052 -14.487C100.052 1.685 86.941 14.796 70.768 14.796C54.595 14.796 41.485 1.685 41.485 -14.487C41.485 -30.660 54.595 -43.771 70.768 -43.771C86.941 -43.771 100.052 -30.660 100.052 -14.487Z"/>
   <path class="monochrome-2 multicolor-2:tintColor hierarchical-2:primary" d="M95.903 -14.487C95.903 -28.369 84.650 -39.622 70.768 -39.622C56.886 -39.622 45.634 -28.369 45.634 -14.487C45.634 -0.605 56.886 10.647 70.768 10.647C84.650 10.647 95.903 -0.605 95.903 -14.487Z"/>
   <path class="monochrome-2 multicolor-2:tintColor hierarchical-2:primary" d="M61.617 -25.469L83.580 -14.487L61.617 -3.506Z"/>
  </g>
  <g id="Black-S" transform="matrix(1 0 0 1 2883.374 696.0)">
   <path class="monochrome-0 multicolor-0:tintColor hierarchical-0:primary" d="M64.678 -31.279C63.168 -31.279 61.945 -32.529 61.945 -34.071L61.945 -53.182C61.945 -60.259 59.285 -66.915 54.455 -71.923C49.636 -76.920 43.238 -79.671 36.439 -79.671C22.373 -79.671 10.932 -67.788 10.932 -53.182L10.932 -34.071C10.932 -32.529 9.707 -31.279 8.199 -31.279C6.689 -31.279 5.466 -32.529 5.466 -34.071L5.466 -53.182C5.466 -70.867 19.361 -85.255 36.439 -85.255C44.713 -85.255 52.495 -81.912 58.350 -75.842C64.193 -69.782 67.411 -61.734 67.411 -53.182L67.411 -34.071C67.411 -32.529 66.188 -31.279 64.678 -31.279Z"/>
   <path class="monochrome-0 multicolor-0:tintColor hierarchical-0:primary" d="M56.479 -12.047L49.434 -12.047C49.300 -12.047 49.193 -12.155 49.193 -12.288L49.193 -45.306C49.193 -45.440 49.300 -45.549 49.434 -45.549L56.479 -45.549Z"/>
   <path class="monochrome-0 multicolor-0:tintColor hierarchical-0:primary" d="M72.877 -28.798C72.877 -20.571 66.355 -13.908 58.301 -13.908L58.301 -43.688C66.355 -43.688 72.877 -37.025 72.877 -28.798Z"/>
   <path class="monochrome-0 multicolor-0:tintColor hierarchical-0:primary" d="M16.397 -45.549L23.443 -45.549C23.577 -45.549 23.685 -45.440 23.685 -45.306L23.685 -12.288C23.685 -12.155 23.577 -12.047 23.443 -12.047L16.397 -12.047Z"/>
   <path class="monochrome-0 multicolor-0:tintColor hierarchical-0:primary" d="M-0.000 -28.798C-0.000 -37.025 6.523 -43.688 14.575 -43.688L14.575 -13.908C6.523 -13.908 -0.000 -20.571 -0.000 -28.798Z"/>
   <path class="monochrome-0 multicolor-0:tintColor hierarchical-0:primary" d="M27.489 -17.936C27.489 -16.697 28.490 -15.697 29.724 -15.697L43.203 -15.654C43.039 -16.290 42.977 -16.966 43.102 -17.688C43.193 -18.209 43.377 -18.726 43.608 -19.216L27.494 -19.216C27.494 -19.053 27.489 -17.936 27.489 -17.936ZM45.296 -46.949C44.484 -46.949 40.372 -46.954 39.497 -46.959L39.518 -29.984L29.883 -21.912L45.269 -21.912C45.274 -24.231 45.296 -44.636 45.296 -46.949ZM46.793 -15.643C47.541 -15.638 48.136 -15.038 48.136 -14.289L48.136 -14.284C48.136 -13.547 47.530 -12.940 46.788 -12.940L29.713 -12.993C26.989 -13.004 24.784 -15.227 24.790 -17.940L24.863 -37.338C24.869 -39.667 26.171 -42.766 27.821 -44.404L37.214 -53.723C37.605 -54.104 38.179 -54.219 38.685 -54.009C39.191 -53.798 39.513 -53.308 39.513 -52.760C39.513 -52.760 39.508 -50.969 39.502 -49.662C41.041 -49.651 46.655 -49.645 46.655 -49.645C47.394 -49.640 48.000 -49.034 48.000 -48.292L47.974 -20.564C47.974 -19.979 47.589 -19.484 47.072 -19.300L47.078 -19.289C46.713 -19.162 45.949 -18.283 45.764 -17.223C45.655 -16.582 45.791 -16.060 46.160 -15.643L46.793 -15.643Z"/>
   <path class="monochrome-1 multicolor-1:tintColor hierarchical-1:primary" d="M102.493 -14.487C102.493 3.034 88.289 17.236 70.768 17.236C53.247 17.236 39.045 3.034 39.045 -14.487C39.045 -32.008 53.247 -46.211 70.768 -46.211C88.289 -46.211 102.493 -32.008 102.493 -14.487Z"/>
   <path class="monochrome-2 multicolor-2:tintColor hierarchical-2:primary" d="M100.052 -14.487C100.052 1.685 86.941 14.796 70.768 14.796C54.595 14.796 41.485 1.685 41.485 -14.487C41.485 -30.660 54.595 -43.771 70.768 -43.771C86.941 -43.771 100.052 -30.660 100.052 -14.487Z"/>
   <path class="monochrome-2 multicolor-2:tintColor hierarchical-2:primary" d="M95.903 -14.487C95.903 -28.369 84.650 -39.622 70.768 -39.622C56.886 -39.622 45.634 -28.369 45.634 -14.487C45.634 -0.605 56.886 10.647 70.768 10.647C84.650 10.647 95.903 -0.605 95.903 -14.487Z"/>
   <path class="monochrome-2 multicolor-2:tintColor hierarchical-2:primary" d="M61.617 -25.469L83.580 -14.487L61.617 -3.506Z"/>
  </g>
 </g>
</svg>
