<?xml version="1.0" encoding="UTF-8" standalone="no"?>
<svg
   xmlns:dc="http://purl.org/dc/elements/1.1/"
   xmlns:cc="http://creativecommons.org/ns#"
   xmlns:rdf="http://www.w3.org/1999/02/22-rdf-syntax-ns#"
   xmlns:svg="http://www.w3.org/2000/svg"
   xmlns="http://www.w3.org/2000/svg"
   xmlns:sodipodi="http://sodipodi.sourceforge.net/DTD/sodipodi-0.dtd"
   xmlns:inkscape="http://www.inkscape.org/namespaces/inkscape"
   width="40"
   height="40"
   viewBox="0 0 10.583333 10.583334"
   version="1.1"
   id="svg2047"
   inkscape:version="1.0.2 (e86c8708, 2021-01-15)"
   sodipodi:docname="NovelSpeakerIcon-color-noround.svg">
  <defs
     id="defs2041">
    <linearGradient
       x1="0"
       y1="0"
       x2="1"
       y2="0"
       gradientUnits="userSpaceOnUse"
       gradientTransform="matrix(0,449.73566,449.73566,0,5513.5864,6567.2183)"
       spreadMethod="pad"
       id="linearGradient808">
      <stop
         style="stop-opacity:1;stop-color:#fd1d1d"
         offset="0"
         id="stop802" />
      <stop
         style="stop-opacity:1;stop-color:#fcb045"
         offset="0.61396023"
         id="stop804" />
      <stop
         style="stop-opacity:1;stop-color:#fcb045"
         offset="1"
         id="stop806" />
    </linearGradient>
    <clipPath
       clipPathUnits="userSpaceOnUse"
       id="clipPath50-8">
      <path
         d="M 0,1080 H 1080 V 0 H 0 Z"
         id="path48-2" />
    </clipPath>
    <clipPath
       clipPathUnits="userSpaceOnUse"
       id="clipPath94-0">
      <path
         d="M 0,1080 H 1080 V 0 H 0 Z"
         id="path92-7" />
    </clipPath>
  </defs>
  <sodipodi:namedview
     id="base"
     pagecolor="#ffffff"
     bordercolor="#666666"
     borderopacity="1.0"
     inkscape:pageopacity="0.0"
     inkscape:pageshadow="2"
     inkscape:zoom="0.0875"
     inkscape:cx="-211.42351"
     inkscape:cy="-500.66434"
     inkscape:document-units="mm"
     inkscape:current-layer="layer1"
     inkscape:document-rotation="0"
     showgrid="true"
     units="px"
     inkscape:window-width="1120"
     inkscape:window-height="680"
     inkscape:window-x="389"
     inkscape:window-y="174"
     inkscape:window-maximized="0">
    <inkscape:grid
       type="xygrid"
       id="grid2049"
       empspacing="1024" />
  </sodipodi:namedview>
  <metadata
     id="metadata2044">
    <rdf:RDF>
      <cc:Work
         rdf:about="">
        <dc:format>image/svg+xml</dc:format>
        <dc:type
           rdf:resource="http://purl.org/dc/dcmitype/StillImage" />
        <dc:title></dc:title>
      </cc:Work>
    </rdf:RDF>
  </metadata>
  <g
     inkscape:label="レイヤー 1"
     inkscape:groupmode="layer"
     id="layer1">
    <g
       id="g2039"
       transform="matrix(0.50000001,0,0,0.49970629,-4.8730851e-5,0.15906834)"
       inkscape:export-xdpi="96"
       inkscape:export-ydpi="96">
      <g
         id="g790"
         transform="matrix(1.2695229,0,0,-1.2597912,-6728.6909,8821.2146)">
        <g
           id="g792">
          <g
             id="g798">
            <g
               id="g800">
              <path
                 d="m 5727,6572 h -426.827 v 430.377 H 5727 Z"
                 style="fill:url(#linearGradient808);stroke:none"
                 id="path810" />
            </g>
          </g>
        </g>
      </g>
      <g
         id="g44"
         transform="matrix(0.5017284,0,0,-0.50175033,0,541.86667)">
        <g
           id="g46"
           clip-path="url(#clipPath50-8)">
          <g
             id="g52"
             transform="translate(889.2393,324.6406)">
            <path
               d="m 0,0 c -18.697,0 -33.847,15.484 -33.847,34.595 v 236.803 c 0,87.7 -32.942,170.18 -92.757,232.242 -59.683,61.917 -138.932,96.016 -223.14,96.016 -174.19,0 -315.898,-147.256 -315.898,-328.258 V 34.595 C -665.642,15.484 -680.797,0 -699.488,0 c -18.692,0 -33.846,15.484 -33.846,34.595 v 236.803 c 0,219.156 172.079,397.449 383.59,397.449 102.486,0 198.857,-41.425 271.364,-116.647 C -6.005,477.108 33.846,377.387 33.846,271.398 V 34.595 C 33.846,15.484 18.696,0 0,0"
               style="fill:#ffffff;fill-opacity:1;fill-rule:nonzero;stroke:none"
               id="path54" />
          </g>
          <g
             id="g56"
             transform="translate(787.7002,86.3154)">
            <path
               d="m 0,0 h -87.256 c -1.657,0 -3,1.343 -3,3 v 409.146 c 0,1.658 1.343,3 3,3 H 0 Z"
               style="fill:#ffffff;fill-opacity:1;fill-rule:nonzero;stroke:none"
               id="path58" />
          </g>
          <g
             id="g60"
             transform="translate(990.7773,293.8887)">
            <path
               d="M 0,0 C 0,-101.941 -80.779,-184.51 -180.513,-184.51 V 184.51 C -80.779,184.51 0,101.941 0,0"
               style="fill:#ffffff;fill-opacity:1;fill-rule:nonzero;stroke:none"
               id="path62" />
          </g>
          <g
             id="g64"
             transform="translate(291.2896,86.3154)">
            <path
               d="m 0,0 h 87.256 c 1.657,0 3,1.343 3,3 v 409.146 c 0,1.658 -1.343,3 -3,3 H 0 Z"
               style="fill:#ffffff;fill-opacity:1;fill-rule:nonzero;stroke:none"
               id="path66" />
          </g>
          <g
             id="g68"
             transform="translate(88.2124,293.8887)">
            <path
               d="M 0,0 C 0,-101.941 80.779,-184.51 180.513,-184.51 V 184.51 C 80.779,184.51 0,101.941 0,0"
               style="fill:#ffffff;fill-opacity:1;fill-rule:nonzero;stroke:none"
               id="path70" />
          </g>
        </g>
      </g>
      <g
         id="g88"
         transform="matrix(0.5017284,0,0,-0.50175033,0,541.86667)">
        <g
           id="g90"
           clip-path="url(#clipPath94-0)">
          <g
             id="g96"
             transform="translate(428.6587,159.2812)">
            <path
               d="m 0,0 c 0,0 0.065,13.841 0.065,15.864 h 199.576 c -2.872,-6.071 -5.157,-12.469 -6.267,-18.932 -1.567,-8.945 -0.784,-17.301 1.241,-25.201 L 27.681,-27.746 C 12.404,-27.746 0,-15.342 0,0 m 220.533,359.524 c 0,-28.66 -0.262,-281.508 -0.327,-310.234 H 29.639 l 119.341,100.017 -0.261,210.347 c 10.837,-0.064 61.76,-0.13 71.814,-0.13 m 18.541,-387.923 h -7.835 c -4.57,5.158 -6.267,11.621 -4.896,19.586 2.284,13.122 11.751,24.024 16.256,25.591 l -0.065,0.131 c 6.397,2.284 11.163,8.421 11.163,15.668 l 0.327,343.595 c 0,9.205 -7.508,16.713 -16.649,16.778 0,0 -69.528,0.065 -88.59,0.196 0.064,16.19 0.13,38.387 0.13,38.387 0,6.79 -3.983,12.862 -10.249,15.473 -6.268,2.611 -13.384,1.175 -18.215,-3.526 L 4.113,327.991 c -20.434,-20.304 -36.56,-58.69 -36.625,-87.547 L -33.426,0.065 c -0.065,-33.622 27.224,-61.171 60.976,-61.302 l 211.458,-0.653 c 9.205,0 16.713,7.507 16.713,16.648 v 0.065 c 0,9.271 -7.377,16.713 -16.647,16.778"
               style="fill:#ffffff;fill-opacity:1;fill-rule:nonzero;stroke:none"
               id="path98" />
          </g>
        </g>
      </g>
    </g>
  </g>
</svg>
